<svg width="14" height="18" viewBox="0 0 14 18" fill="none" xmlns="http://www.w3.org/2000/svg">
<path fill-rule="evenodd" clip-rule="evenodd" d="M6.47 0.47C6.61063 0.32955 6.80125 0.25066 7 0.25066C7.19875 0.25066 7.38938 0.32955 7.53 0.47L13.53 6.47C13.6037 6.53866 13.6628 6.62146 13.7038 6.71346C13.7448 6.80546 13.7668 6.90478 13.7686 7.00548C13.7704 7.10618 13.7518 7.20621 13.7141 7.2996C13.6764 7.39299 13.6203 7.47782 13.549 7.54904C13.4778 7.62026 13.393 7.6764 13.2996 7.71412C13.2062 7.75184 13.1062 7.77037 13.0055 7.76859C12.9048 7.76682 12.8055 7.74477 12.7135 7.70378C12.6215 7.66279 12.5387 7.60369 12.47 7.53L7.75 2.81V17C7.75 17.1989 7.67098 17.3897 7.53033 17.5303C7.38968 17.671 7.19891 17.75 7 17.75C6.80109 17.75 6.61032 17.671 6.46967 17.5303C6.32902 17.3897 6.25 17.1989 6.25 17V2.81L1.53 7.53C1.46134 7.60369 1.37854 7.66279 1.28654 7.70378C1.19454 7.74477 1.09523 7.76682 0.994523 7.76859C0.893821 7.77037 0.793791 7.75184 0.700403 7.71412C0.607015 7.6764 0.522181 7.62026 0.450962 7.54904C0.379744 7.47782 0.323599 7.39299 0.285878 7.2996C0.248157 7.20621 0.229633 7.10618 0.231409 7.00548C0.233186 6.90478 0.255228 6.80546 0.29622 6.71346C0.337212 6.62146 0.396314 6.53866 0.470001 6.47L6.47 0.47Z" fill="#0C0093"/>
</svg>
